<?xml version="1.0" encoding="UTF-8" standalone="no"?>
<!-- Created with Inkscape (http://www.inkscape.org/) -->

<svg
   xmlns:dc="http://purl.org/dc/elements/1.1/"
   xmlns:cc="http://creativecommons.org/ns#"
   xmlns:rdf="http://www.w3.org/1999/02/22-rdf-syntax-ns#"
   xmlns:svg="http://www.w3.org/2000/svg"
   xmlns="http://www.w3.org/2000/svg"
   xmlns:sodipodi="http://sodipodi.sourceforge.net/DTD/sodipodi-0.dtd"
   xmlns:inkscape="http://www.inkscape.org/namespaces/inkscape"
   width="256"
   height="256"
   id="svg2"
   version="1.1"
   inkscape:version="0.48.4 r9939"
   sodipodi:docname="agesse.svg">
  <defs
     id="defs4" />
  <sodipodi:namedview
     id="base"
     pagecolor="#ffffff"
     bordercolor="#666666"
     borderopacity="1.0"
     inkscape:pageopacity="0.0"
     inkscape:pageshadow="2"
     inkscape:zoom="0.7"
     inkscape:cx="239.16799"
     inkscape:cy="145.88926"
     inkscape:document-units="px"
     inkscape:current-layer="layer1"
     showgrid="false"
     inkscape:window-width="1680"
     inkscape:window-height="998"
     inkscape:window-x="-8"
     inkscape:window-y="-8"
     inkscape:window-maximized="1"
     showguides="true"
     inkscape:guide-bbox="true"
     inkscape:snap-bbox="true"
     inkscape:snap-page="true"
     inkscape:snap-global="false" />
  <metadata
     id="metadata7">
    <rdf:RDF>
      <cc:Work
         rdf:about="">
        <dc:format>image/svg+xml</dc:format>
        <dc:type
           rdf:resource="http://purl.org/dc/dcmitype/StillImage" />
        <dc:title />
      </cc:Work>
    </rdf:RDF>
  </metadata>
  <g
     inkscape:label="Calque 1"
     inkscape:groupmode="layer"
     id="layer1"
     transform="translate(0,-796.36218)">
    <path
       sodipodi:type="arc"
       style="fill:#f2f2f2;fill-opacity:1;stroke:#ec407a;stroke-width:10;stroke-linecap:round;stroke-linejoin:round;stroke-miterlimit:4;stroke-opacity:1;stroke-dasharray:none"
       id="path3888"
       sodipodi:cx="128"
       sodipodi:cy="128"
       sodipodi:rx="128"
       sodipodi:ry="128"
       d="M 256,128 C 256,198.69245 198.69245,256 128,256 57.307552,256 0,198.69245 0,128 0,57.307552 57.307552,0 128,0 198.69245,0 256,57.307552 256,128 z"
       transform="matrix(0.96240602,0,0,0.96240602,4.8120301,801.17421)" />
    <g
       id="g3894"
       style="fill:#ec407a;fill-opacity:1">
      <path
         sodipodi:nodetypes="csssssssssssssssc"
         inkscape:connector-curvature="0"
         id="path3780"
         d="m 56.362976,974.67304 c -4.467113,-1.74999 -18.183365,-61.96667 -0.361408,-87.58793 14.731523,-21.17838 47.687062,-30.49628 69.758352,-14.21224 13.31258,9.82192 19.08566,27.593 13.81309,43.29409 -4.93185,14.68645 -11.16786,28.90485 -21.52448,40.71233 -12.43741,14.17975 -28.108686,30.47748 -26.111858,50.87861 1.65434,16.9021 17.966978,30.37 35.425908,28.5446 14.23685,-1.4886 28.38678,-11.6289 28.52194,-27.1296 0.15759,-18.0725 -19.07882,-27.91445 -4.2347,-25.02516 14.34069,2.7913 17.86595,21.22036 12.28139,33.01046 -12.98703,27.4184 -54.47566,37.1505 -76.261235,14.5943 -9.161535,-9.4857 -10.564991,-23.5398 -5.4271,-35.41076 11.463848,-26.48687 38.122335,-43.71266 44.264145,-73.02036 3.59376,-17.1488 1.01062,-39.28102 -16.44396,-47.63204 -15.931892,-7.6225 -35.948038,-1.05724 -45.388373,13.88976 -12.718071,20.1367 -8.420582,45.10774 -0.691227,66.53128 3.94596,10.93706 -4.782288,18.58909 -7.620484,18.56266 z"
         style="fill:#ec407a;fill-opacity:1;stroke:none" />
      <path
         sodipodi:nodetypes="scss"
         inkscape:connector-curvature="0"
         id="path3782"
         d="m 36.881933,909.26419 c 38.179253,14.09291 82.427137,13.63224 116.886207,-1.53308 -10.9669,17.20884 -98.579969,38.10578 -122.380024,5.08122 -2.59707,-3.60365 3.437545,-4.30716 5.493817,-3.54814 z"
         style="fill:#ec407a;fill-opacity:1;stroke:none" />
      <path
         sodipodi:nodetypes="ssscsssssssssscscsssssss"
         inkscape:connector-curvature="0"
         id="path3784"
         d="m 231.53497,921.16879 c -2.16417,-7.81514 -10.14131,-10.2905 -16.58831,-7.21666 -5.6021,2.671 -17.56227,9.38049 -13.5707,4.56019 10.7514,-12.98363 29.68275,-21.71368 28.69682,-36.60277 -0.85463,-8.79677 -12.49409,-8.65189 -20.11166,-6.57539 -18.59453,5.06877 -48.75341,36.1606 -56.66354,58.67978 -3.56666,10.15382 -2.59983,23.22272 6.697,29.89158 5.77172,4.14022 14.65184,6.36056 20.45696,1.22296 9.74178,-8.62158 -1.13554,-34.67693 8.23702,-25.6674 4.98617,4.79304 4.61573,18.41114 -1.70643,27.05705 -8.41113,11.50269 -28.17627,13.28853 -39.88201,3.96716 -9.46853,-7.53986 -9.9122,-21.53099 -5.60321,-32.0867 15.34682,-37.59501 53.13661,-73.53139 91.53613,-74.62974 9.36147,-0.26777 13.02138,12.51804 9.56505,20.60508 -4.2331,9.90451 -11.86058,15.9777 -19.45994,21.84925 15.61999,-5.01135 23.72336,13.70623 18.92677,23.41814 -4.01523,8.12986 -11.7034,15.32561 -19.50702,19.44913 10.84331,7.66013 15.27664,18.2177 6.47287,28.0539 -6.29762,7.03615 -16.08143,8.85685 -25.68064,8.36167 -8.1197,-0.41886 -9.45569,-11.54152 -0.78248,-9.75465 5.6449,1.16297 12.71181,5.36636 20.41962,0.15259 15.66488,-10.59616 -0.0338,-24.71503 -11.73027,-24.27709 -8.69629,0.3256 -2.83517,-4.97138 2.52502,-5.58262 12.83074,-1.46313 21.72402,-10.53529 17.75295,-24.87546 z"
         style="fill:#ec407a;fill-opacity:1;stroke:none" />
    </g>
    <path
       sodipodi:type="arc"
       style="fill:none;stroke:#ec407a;stroke-width:10;stroke-miterlimit:4;stroke-opacity:1;stroke-dasharray:none"
       id="path3868"
       sodipodi:cx="100.0051"
       sodipodi:cy="0.43140602"
       sodipodi:rx="50.507626"
       sodipodi:ry="23.233509"
       d="m 150.51272,0.43140602 c 0,12.83151298 -22.61303,23.23350898 -50.50762,23.23350898 -27.894595,0 -50.507629,-10.401996 -50.507629,-23.23350898 0,-12.83151302 22.613034,-23.23350902 50.507629,-23.23350902 27.89459,0 50.50762,10.401996 50.50762,23.23350902 z"
       transform="matrix(0.81196709,0,0,0.81196709,20.862493,839.13963)" />
  </g>
</svg>
